<svg xmlns="http://www.w3.org/2000/svg" version="1.1">
<g>
<rect x="400" y="750" width="15" height="10"
    style="fill:#FF0A0A;"/>
  <text x="418" y="760" fill="white" font-size="11">>12000</text>
</g>

<g>
<rect x="400" y="760" width="15" height="10"
    style="fill:#F53100;"/>
  <text x="418" y="770" fill="white" font-size="11">8001-12000</text>
</g>

<g>
<rect x="400" y="770" width="15" height="10"
    style="fill:#FF6600;"/>
  <text x="418" y="780" fill="white" font-size="11">5001-8000</text>
</g>

<g>
<rect x="400" y="780" width="15" height="10"
    style="fill:#FF9D0A;"/>
  <text x="418" y="790" fill="white" font-size="11">3001-5000</text>
</g>
<g>
<rect x="400" y="790" width="15" height="10"
    style="fill:#FFCE0A;"/>
  <text x="418" y="800" fill="white" font-size="11">1501-3000</text>
</g>
<g>
<rect x="400" y="800" width="15" height="10"
    style="fill:#8F8F00;"/>
  <text x="418" y="810" fill="white" font-size="11">801-1500</text>
</g>
<g>
<rect x="400" y="810" width="15" height="10"
    style="fill:#627A00;"/>
  <text x="418" y="820" fill="white" font-size="11">301-800</text>
</g>
<g>
<rect x="400" y="820" width="15" height="10"
    style="fill:#497A00;"/>
  <text x="418" y="830" fill="white" font-size="11">101-300</text>
</g>
<g>
<rect x="400" y="830" width="15" height="10"
    style="fill:#317A00;"/>
  <text x="418" y="840" fill="white" font-size="11">51-100</text>
</g>
<g>
<rect x="400" y="840" width="15" height="10"
    style="fill:#146600;"/>
  <text x="418" y="850" fill="white" font-size="11">1-50</text>
</g>


</svg>